<mxfile host="Electron" agent="Mozilla/5.0 (Windows NT 10.0; Win64; x64) AppleWebKit/537.36 (KHTML, like Gecko) draw.io/24.7.5 Chrome/126.0.6478.183 Electron/31.3.0 Safari/537.36" version="24.7.5">
  <diagram name="Page-1" id="AwaaM8fpRm9UanTjbBLg">
    <mxGraphModel dx="1102" dy="702" grid="1" gridSize="10" guides="1" tooltips="1" connect="1" arrows="1" fold="1" page="1" pageScale="1" pageWidth="850" pageHeight="1100" math="0" shadow="0">
      <root>
        <mxCell id="0" />
        <mxCell id="1" parent="0" />
        <mxCell id="EakrzvKqewn2gxJNHgOa-1" value="客户端" style="rounded=1;whiteSpace=wrap;html=1;strokeColor=#6c8ebf;shadow=0;fillColor=#dae8fc;" parent="1" vertex="1">
          <mxGeometry x="80" y="200" width="80" height="320" as="geometry" />
        </mxCell>
        <mxCell id="EakrzvKqewn2gxJNHgOa-2" value="服务端" style="rounded=1;whiteSpace=wrap;html=1;fillColor=#ffe6cc;strokeColor=#d79b00;" parent="1" vertex="1">
          <mxGeometry x="360" y="200" width="80" height="320" as="geometry" />
        </mxCell>
        <mxCell id="EakrzvKqewn2gxJNHgOa-13" style="edgeStyle=orthogonalEdgeStyle;rounded=0;orthogonalLoop=1;jettySize=auto;html=1;exitX=1;exitY=0.5;exitDx=0;exitDy=0;" parent="1" edge="1">
          <mxGeometry relative="1" as="geometry">
            <mxPoint x="160" y="240" as="sourcePoint" />
            <mxPoint x="360" y="240" as="targetPoint" />
          </mxGeometry>
        </mxCell>
        <mxCell id="67U4C__RH9uVOI3qzs1h-11" style="edgeStyle=orthogonalEdgeStyle;rounded=0;orthogonalLoop=1;jettySize=auto;html=1;exitX=1;exitY=0.5;exitDx=0;exitDy=0;entryX=0;entryY=0.5;entryDx=0;entryDy=0;dashed=1;endArrow=classic;endFill=1;" edge="1" parent="1" target="67U4C__RH9uVOI3qzs1h-6">
          <mxGeometry relative="1" as="geometry">
            <mxPoint x="440" y="240" as="sourcePoint" />
          </mxGeometry>
        </mxCell>
        <mxCell id="67U4C__RH9uVOI3qzs1h-3" style="edgeStyle=orthogonalEdgeStyle;rounded=0;orthogonalLoop=1;jettySize=auto;html=1;exitX=1;exitY=0.5;exitDx=0;exitDy=0;entryX=0;entryY=0.5;entryDx=0;entryDy=0;" edge="1" parent="1">
          <mxGeometry relative="1" as="geometry">
            <mxPoint x="160" y="469.5" as="sourcePoint" />
            <mxPoint x="360" y="469.5" as="targetPoint" />
          </mxGeometry>
        </mxCell>
        <mxCell id="EakrzvKqewn2gxJNHgOa-11" value="" style="rounded=0;whiteSpace=wrap;html=1;fillColor=none;strokeColor=none;" parent="1" vertex="1">
          <mxGeometry x="80" y="560" width="80" height="80" as="geometry" />
        </mxCell>
        <mxCell id="67U4C__RH9uVOI3qzs1h-14" style="edgeStyle=orthogonalEdgeStyle;rounded=0;orthogonalLoop=1;jettySize=auto;html=1;exitX=1;exitY=0.25;exitDx=0;exitDy=0;entryX=0;entryY=0.5;entryDx=0;entryDy=0;endArrow=none;endFill=0;dashed=1;startArrow=classic;startFill=1;" edge="1" parent="1" target="67U4C__RH9uVOI3qzs1h-8">
          <mxGeometry relative="1" as="geometry">
            <mxPoint x="440" y="470" as="sourcePoint" />
          </mxGeometry>
        </mxCell>
        <mxCell id="EakrzvKqewn2gxJNHgOa-12" value="" style="rounded=0;whiteSpace=wrap;html=1;fillColor=none;strokeColor=none;" parent="1" vertex="1">
          <mxGeometry x="360" y="560" width="80" height="80" as="geometry" />
        </mxCell>
        <mxCell id="EakrzvKqewn2gxJNHgOa-15" value="Open Connection" style="text;html=1;align=center;verticalAlign=middle;whiteSpace=wrap;rounded=0;fontFamily=Comic Sans MS;" parent="1" vertex="1">
          <mxGeometry x="170" y="210" width="180" height="30" as="geometry" />
        </mxCell>
        <mxCell id="EakrzvKqewn2gxJNHgOa-16" value="Close Connection" style="text;html=1;align=center;verticalAlign=middle;whiteSpace=wrap;rounded=0;fontFamily=Comic Sans MS;" parent="1" vertex="1">
          <mxGeometry x="170" y="440" width="180" height="30" as="geometry" />
        </mxCell>
        <mxCell id="67U4C__RH9uVOI3qzs1h-15" style="edgeStyle=orthogonalEdgeStyle;rounded=0;orthogonalLoop=1;jettySize=auto;html=1;exitX=0.5;exitY=1;exitDx=0;exitDy=0;entryX=0.5;entryY=0;entryDx=0;entryDy=0;endArrow=classic;endFill=1;dashed=1;" edge="1" parent="1" source="67U4C__RH9uVOI3qzs1h-5" target="67U4C__RH9uVOI3qzs1h-8">
          <mxGeometry relative="1" as="geometry" />
        </mxCell>
        <mxCell id="67U4C__RH9uVOI3qzs1h-5" value="通过 CancellationTokenSource&amp;nbsp;创建令牌" style="text;html=1;align=center;verticalAlign=middle;whiteSpace=wrap;rounded=0;fontFamily=Comic Sans MS;" vertex="1" parent="1">
          <mxGeometry x="450" y="260" width="222" height="30" as="geometry" />
        </mxCell>
        <mxCell id="67U4C__RH9uVOI3qzs1h-6" value="RequestAborted" style="rounded=1;whiteSpace=wrap;html=1;fillColor=#d5e8d4;strokeColor=#82b366;" vertex="1" parent="1">
          <mxGeometry x="500" y="220" width="120" height="40" as="geometry" />
        </mxCell>
        <mxCell id="67U4C__RH9uVOI3qzs1h-7" value="调用 CancellationToken&amp;nbsp;的 Cancel()&amp;nbsp;方法" style="text;html=1;align=center;verticalAlign=middle;whiteSpace=wrap;rounded=0;fontFamily=Comic Sans MS;" vertex="1" parent="1">
          <mxGeometry x="445" y="490" width="230" height="30" as="geometry" />
        </mxCell>
        <mxCell id="67U4C__RH9uVOI3qzs1h-8" value="RequestAborted" style="rounded=1;whiteSpace=wrap;html=1;fillColor=#d5e8d4;strokeColor=#82b366;" vertex="1" parent="1">
          <mxGeometry x="501" y="450" width="120" height="40" as="geometry" />
        </mxCell>
        <mxCell id="67U4C__RH9uVOI3qzs1h-18" value="" style="outlineConnect=0;fontColor=#232F3E;gradientColor=none;fillColor=#232F3D;strokeColor=none;dashed=0;verticalLabelPosition=bottom;verticalAlign=top;align=center;html=1;fontSize=12;fontStyle=0;aspect=fixed;pointerEvents=1;shape=mxgraph.aws4.client;" vertex="1" parent="1">
          <mxGeometry x="95" y="460" width="50" height="48.72" as="geometry" />
        </mxCell>
        <mxCell id="67U4C__RH9uVOI3qzs1h-19" value="" style="sketch=0;outlineConnect=0;fontColor=#232F3E;gradientColor=none;fillColor=#232F3D;strokeColor=none;dashed=0;verticalLabelPosition=bottom;verticalAlign=top;align=center;html=1;fontSize=12;fontStyle=0;aspect=fixed;pointerEvents=1;shape=mxgraph.aws4.traditional_server;" vertex="1" parent="1">
          <mxGeometry x="383.5" y="450" width="33" height="57.2" as="geometry" />
        </mxCell>
      </root>
    </mxGraphModel>
  </diagram>
</mxfile>
